<?xml version="1.0" encoding="utf-8"?>
<!-- Generator: Adobe Illustrator 15.0.2, SVG Export Plug-In . SVG Version: 6.00 Build 0)  -->
<!DOCTYPE svg PUBLIC "-//W3C//DTD SVG 1.1//EN" "http://www.w3.org/Graphics/SVG/1.1/DTD/svg11.dtd">
<svg version="1.1" id="CAMERA_ICONS_SET_BY_RedKoala"
	 xmlns="http://www.w3.org/2000/svg" xmlns:xlink="http://www.w3.org/1999/xlink" x="0px" y="0px" width="311.812px"
	 height="311.809px" viewBox="0 0 311.812 311.809" enable-background="new 0 0 311.812 311.809" xml:space="preserve">
	 	<g>
		<path fill="#9b9eb0" d="M155.905,126.246c14.881,0,27.868,8.072,34.849,20.07h63.383v-21.33c0-9.713-7.873-17.586-17.586-17.586
			h-42.346l-9.84-18.047c-1.088-1.994-3.176-3.234-5.447-3.234h-46.026c-2.271,0-4.36,1.24-5.447,3.234l-9.839,18.047H75.259
			c-9.713,0-17.586,7.873-17.586,17.586v21.33h63.383C128.036,134.318,141.023,126.246,155.905,126.246z M217.531,123.642
			c0-1.057,0.857-1.912,1.912-1.912h17.533c1.055,0,1.912,0.855,1.912,1.912v11.688c0,1.057-0.857,1.912-1.912,1.912h-17.533
			c-1.055,0-1.912-0.855-1.912-1.912V123.642z"/>
		<path fill="#9b9eb0" d="M194.693,155.617c0.977,3.477,1.512,7.139,1.512,10.928c0,22.258-18.043,40.301-40.3,40.301
			c-22.257,0-40.3-18.043-40.3-40.301c0-3.789,0.534-7.451,1.512-10.928H57.673v52.488c0,9.712,7.874,17.585,17.586,17.585H236.55
			c9.713,0,17.586-7.873,17.586-17.585v-52.488H194.693z"/>
	
</g>
<g>
	<path id="sign" fill="#f9a181" d="M266.148,45.664c-60.887-60.885-159.599-60.885-220.484,0s-60.886,159.598-0.001,220.482
		c60.886,60.885,159.6,60.885,220.485,0C327.033,205.261,327.033,106.548,266.148,45.664z M59.806,59.804
		C85.475,34.136,119.604,20,155.905,20c32.948,0,64.104,11.646,88.772,32.99L52.989,244.677C31.646,220.009,20,188.853,20,155.904
		C20,119.603,34.137,85.474,59.806,59.804z M155.905,291.81c-32.948,0-64.106-11.646-88.773-32.992L258.82,67.13
		c21.344,24.668,32.99,55.826,32.99,88.773c0,36.301-14.137,70.429-39.805,96.099C226.335,277.673,192.207,291.81,155.905,291.81z"
		/></g>

</svg>
